# xmcd CD database file
#
# Track frame offsets:
#	150
#	29493
#	50284
#	72482
#	89236
#	102820
#	121545
#	142325
#	165340
#	188463
#	201545
#	216892
#	234856
#	255150
#	268587
#	288959
#	305673
#
# Disc length: 4245 seconds
#
# Revision: 0
# Processed by: cddbd v1.5.2PL0 Copyright (c) Steve Scherf et al.
# Submitted via: CDex 1.70beta2
#
DISCID=f4109311
DTITLE=Santo Rico Compilation - Mambo Rico #9
DYEAR=1900
DGENRE=Salsa
TTITLE0=Basame Mama
TTITLE1=Ode To Cachao
TTITLE2=Mami Me Gusto
TTITLE3=El Nuevo Barretto
TTITLE4=Son Sabroson
TTITLE5=Me Voy Pa'moron
TTITLE6=Via
TTITLE7=Rio Manzanares
TTITLE8=El Baile De Suavecito
TTITLE9=Oye Mi Mulata
TTITLE10=Brujeria
TTITLE11=Bongo
TTITLE12=Sera (Bilongo)
TTITLE13=Arecido
TTITLE14=La Guerra De Los Gallabos
TTITLE15=Trenta Quilos
TTITLE16=Los Dos Hermanos
EXTD=
EXTT0=
EXTT1=
EXTT2=
EXTT3=
EXTT4=
EXTT5=
EXTT6=
EXTT7=
EXTT8=
EXTT9=
EXTT10=
EXTT11=
EXTT12=
EXTT13=
EXTT14=
EXTT15=
EXTT16=
PLAYORDER=
